<?xml version="1.0" encoding="UTF-8"?>
<svg width="32px" height="32px" viewBox="0 0 32 32" version="1.1" xmlns="http://www.w3.org/2000/svg" xmlns:xlink="http://www.w3.org/1999/xlink">
    <!-- Generator: Sketch 54.1 (76490) - https://sketchapp.com -->
    <title>开始事件进行中</title>
    <desc>Created with Sketch.</desc>
    <g id="开始事件进行中" stroke="none" stroke-width="1" fill="none" fill-rule="evenodd">
        <g id="编组-89" transform="translate(0.487065, 0.493149)">
            <rect id="矩形复制-103" x="0" y="0" width="31.0213022" height="31.0213022"></rect>
            <circle id="椭圆形复制-10" stroke="#4285F4" fill="#E7FEFA" cx="15.5106511" cy="15.5106511" r="15.5106511"></circle>
            <path d="M16.8848937,12.165328 L21.0672843,17.6422489 C21.4024742,18.0811865 21.3183701,18.7087408 20.8794325,19.0439307 C20.7051099,19.1770502 20.4918556,19.2491639 20.2725175,19.2491639 L11.9077362,19.2491639 C11.3554515,19.2491639 10.9077362,18.8014486 10.9077362,18.2491639 C10.9077362,18.0298258 10.9798499,17.8165715 11.1129694,17.6422489 L15.2953601,12.165328 C15.63055,11.7263905 16.2581042,11.6422863 16.6970418,11.9774762 C16.767735,12.0314602 16.8309096,12.0946349 16.8848937,12.165328 Z" id="三角形复制-8" fill="#50E3C2" transform="translate(16.090153, 15.510677) rotate(-270.000000) translate(-16.090153, -15.510677) "></path>
        </g>
    </g>
</svg>