<?xml version="1.0" encoding="UTF-8"?>
<svg width="38px" height="34px" viewBox="0 0 38 34" version="1.1" xmlns="http://www.w3.org/2000/svg" xmlns:xlink="http://www.w3.org/1999/xlink">
    <!-- Generator: Sketch 54.1 (76490) - https://sketchapp.com -->
    <title>缩小全屏</title>
    <desc>Created with Sketch.</desc>
    <g id="缩小全屏" stroke="none" stroke-width="1" fill="none" fill-rule="evenodd">
        <g id="编组-127">
            <rect id="矩形复制-139" transform="translate(19.000000, 17.000000) rotate(-450.000000) translate(-19.000000, -17.000000) " x="2" y="-2" width="34" height="38" rx="2"></rect>
            <g id="编组-103" transform="translate(6.000000, 5.000000)" fill="#666666" fill-rule="nonzero">
                <g id="全屏复制" transform="translate(14.095920, 0.000000)">
                    <path d="M2.73044868,6.61173995 L2.73044868,1.11593418 C2.73044868,0.0997289319 1.73955034,0.0997289319 1.73955034,0.0997289319 C1.73955034,0.0997289319 0.748682933,0.0997289319 0.751838561,1.11593418 L0.751838561,9.00509867 C0.751838561,9.00509867 0.751838561,9.02087681 0.75499419,9.04940122 C0.770834208,9.36598503 0.884808091,9.57809277 1.0335867,9.71737356 C1.17289843,9.86299654 1.38181961,9.97697043 1.69524778,9.99281044 C1.72689688,9.99596607 1.7427369,9.99596607 1.7427369,9.99596607 L9.66670612,9.99596607 C10.6829114,9.99596607 10.6829114,9.00506773 10.6829114,9.00506773 C10.6829114,9.00506773 10.6829114,8.01416939 9.66670612,8.01735596 L4.12656686,8.01735596 L9.90063512,2.2116386 C10.6192522,1.49299057 9.91963077,0.793369134 9.91963077,0.793369134 C9.91963077,0.793369134 9.21682277,0.0937167572 8.50136131,0.812364781 L2.73044868,6.61173995 Z" id="形状"></path>
                </g>
                <g id="全屏复制-2" transform="translate(6.300000, 5.000000) scale(-1, 1) translate(-6.300000, -5.000000) translate(0.800000, 0.000000)">
                    <path d="M2.73044868,6.61173995 L2.73044868,1.11593418 C2.73044868,0.0997289319 1.73955034,0.0997289319 1.73955034,0.0997289319 C1.73955034,0.0997289319 0.748682933,0.0997289319 0.751838561,1.11593418 L0.751838561,9.00509867 C0.751838561,9.00509867 0.751838561,9.02087681 0.75499419,9.04940122 C0.770834208,9.36598503 0.884808091,9.57809277 1.0335867,9.71737356 C1.17289843,9.86299654 1.38181961,9.97697043 1.69524778,9.99281044 C1.72689688,9.99596607 1.7427369,9.99596607 1.7427369,9.99596607 L9.66670612,9.99596607 C10.6829114,9.99596607 10.6829114,9.00506773 10.6829114,9.00506773 C10.6829114,9.00506773 10.6829114,8.01416939 9.66670612,8.01735596 L4.12656686,8.01735596 L9.90063512,2.2116386 C10.6192522,1.49299057 9.91963077,0.793369134 9.91963077,0.793369134 C9.91963077,0.793369134 9.21682277,0.0937167572 8.50136131,0.812364781 L2.73044868,6.61173995 Z" id="形状"></path>
                </g>
                <g id="全屏复制-4" transform="translate(19.595920, 18.850809) scale(1, -1) translate(-19.595920, -18.850809) translate(14.095920, 13.850809)">
                    <path d="M2.73044868,6.61173995 L2.73044868,1.11593418 C2.73044868,0.0997289319 1.73955034,0.0997289319 1.73955034,0.0997289319 C1.73955034,0.0997289319 0.748682933,0.0997289319 0.751838561,1.11593418 L0.751838561,9.00509867 C0.751838561,9.00509867 0.751838561,9.02087681 0.75499419,9.04940122 C0.770834208,9.36598503 0.884808091,9.57809277 1.0335867,9.71737356 C1.17289843,9.86299654 1.38181961,9.97697043 1.69524778,9.99281044 C1.72689688,9.99596607 1.7427369,9.99596607 1.7427369,9.99596607 L9.66670612,9.99596607 C10.6829114,9.99596607 10.6829114,9.00506773 10.6829114,9.00506773 C10.6829114,9.00506773 10.6829114,8.01416939 9.66670612,8.01735596 L4.12656686,8.01735596 L9.90063512,2.2116386 C10.6192522,1.49299057 9.91963077,0.793369134 9.91963077,0.793369134 C9.91963077,0.793369134 9.21682277,0.0937167572 8.50136131,0.812364781 L2.73044868,6.61173995 Z" id="形状"></path>
                </g>
                <g id="全屏复制-3" transform="translate(6.300000, 18.850809) scale(-1, -1) translate(-6.300000, -18.850809) translate(0.800000, 13.850809)">
                    <path d="M2.73044868,6.61173995 L2.73044868,1.11593418 C2.73044868,0.0997289319 1.73955034,0.0997289319 1.73955034,0.0997289319 C1.73955034,0.0997289319 0.748682933,0.0997289319 0.751838561,1.11593418 L0.751838561,9.00509867 C0.751838561,9.00509867 0.751838561,9.02087681 0.75499419,9.04940122 C0.770834208,9.36598503 0.884808091,9.57809277 1.0335867,9.71737356 C1.17289843,9.86299654 1.38181961,9.97697043 1.69524778,9.99281044 C1.72689688,9.99596607 1.7427369,9.99596607 1.7427369,9.99596607 L9.66670612,9.99596607 C10.6829114,9.99596607 10.6829114,9.00506773 10.6829114,9.00506773 C10.6829114,9.00506773 10.6829114,8.01416939 9.66670612,8.01735596 L4.12656686,8.01735596 L9.90063512,2.2116386 C10.6192522,1.49299057 9.91963077,0.793369134 9.91963077,0.793369134 C9.91963077,0.793369134 9.21682277,0.0937167572 8.50136131,0.812364781 L2.73044868,6.61173995 Z" id="形状"></path>
                </g>
            </g>
        </g>
    </g>
</svg>