<?xml version="1.0" encoding="UTF-8"?>
<svg width="38px" height="34px" viewBox="0 0 38 34" version="1.1" xmlns="http://www.w3.org/2000/svg" xmlns:xlink="http://www.w3.org/1999/xlink">
    <!-- Generator: Sketch 54.1 (76490) - https://sketchapp.com -->
    <title>放大全屏</title>
    <desc>Created with Sketch.</desc>
    <g id="放大全屏" stroke="none" stroke-width="1" fill="none" fill-rule="evenodd">
        <g id="编组-127">
            <rect id="矩形复制-9" transform="translate(19.000000, 17.000000) rotate(-450.000000) translate(-19.000000, -17.000000) " x="2" y="-2" width="34" height="38" rx="2"></rect>
            <g id="全屏" transform="translate(7.500000, 5.500000)" fill="#999999" fill-rule="nonzero">
                <path d="M23.5525038,22.7228106 L23.5525038,16.1326772 C23.5525038,15.2858395 22.7267552,15.2858395 22.7267552,15.2858395 C22.7267552,15.2858395 21.9010066,15.2858395 21.903662,16.1326772 L21.903662,20.7494599 L15.0629088,13.9351067 C14.4640612,13.3362333 13.8810175,13.919277 13.8810175,13.919277 C13.8810175,13.919277 13.2979997,14.5022948 13.8968473,15.1011682 L20.7296599,21.910262 L16.1498733,21.910262 C15.3030098,21.910262 15.3030098,22.7359849 15.3030098,22.7359849 C15.3030098,22.7359849 15.3030098,23.5617593 16.1498733,23.5591038 L22.7241255,23.5591038 C22.7241255,23.5591038 22.7372997,23.5591038 22.7610443,23.5564483 C23.0248641,23.5432741 23.2016464,23.4482959 23.3177137,23.3243137 C23.4390662,23.2082206 23.5340186,23.0340938 23.5472186,22.7729295 C23.5498741,22.7465552 23.5498741,22.7333552 23.5498741,22.7333552 C23.5498741,22.7333552 23.5525038,22.7307255 23.5525038,22.7227849 L23.5525038,22.7228106 Z M15.0629088,10.0596389 L21.8720026,3.22682624 L21.8720026,7.80666439 C21.8720026,8.65350209 22.6977512,8.65350209 22.6977512,8.65350209 C22.6977512,8.65350209 23.5234741,8.65350209 23.5208444,7.80666439 L23.5208444,1.23236064 C23.5208444,1.23236064 23.5208444,1.21921219 23.5182147,1.19544185 C23.5050147,0.931622012 23.4100364,0.754865556 23.2860543,0.638798233 C23.1699612,0.517445748 22.9958602,0.422467513 22.73467,0.409267498 C22.7082958,0.406637807 22.6950958,0.406637807 22.6950958,0.406637807 L16.0917881,0.406637807 C15.2449504,0.406637807 15.2449504,1.23238642 15.2449504,1.23238642 C15.2449504,1.23238642 15.2449504,2.05813504 16.0917881,2.05547957 L20.7085708,2.05547957 L13.8968473,8.89357737 C13.2979997,9.49245072 13.8810175,10.0754686 13.8810175,10.0754686 C13.8810175,10.0754686 14.4666909,10.6585122 15.0629088,10.0596389 L15.0629088,10.0596389 Z M3.26243019,2.06867958 L7.84226833,2.06867958 C8.68913182,2.06867958 8.68913182,1.24293097 8.68913182,1.24293097 C8.68913182,1.24293097 8.68913182,0.417182351 7.84226833,0.419837822 L1.26799037,0.419837822 C1.26799037,0.419837822 1.25481614,0.419837822 1.23107158,0.422467513 C0.964596269,0.435667528 0.790469504,0.530619983 0.674402181,0.651998249 C0.553049696,0.768065571 0.458097242,0.942192336 0.444897227,1.2033567 C0.442241755,1.22973095 0.442241755,1.24293097 0.442241755,1.24293097 L0.442241755,7.84623865 C0.442241755,8.69307636 1.26801615,8.69307636 1.26801615,8.69307636 C1.26801615,8.69307636 2.09373899,8.69307636 2.0911093,7.84623865 L2.0911093,3.22945594 L8.93183679,10.043835 C9.53071014,10.6426825 10.113728,10.0596389 10.113728,10.0596389 C10.113728,10.0596389 10.6967717,9.47662102 10.0978983,8.87774766 L3.26243019,2.0686538 L3.26243019,2.06867958 Z M8.90546254,13.9219067 L2.09636868,20.7547193 L2.09636868,16.1749327 C2.09636868,15.3280692 1.27064584,15.3280692 1.27064584,15.3280692 C1.27064584,15.3280692 0.444871445,15.3280692 0.447526917,16.1749327 L0.447526917,22.7491849 C0.447526917,22.7491849 0.447526917,22.7623849 0.450156608,22.7861295 C0.463356623,23.0499235 0.558334859,23.22668 0.682317034,23.3427473 C0.798410138,23.4641256 0.972511122,23.5591038 1.23370127,23.572278 C1.26007552,23.5749335 1.27327553,23.5749335 1.27327553,23.5749335 L7.87655744,23.5749335 C8.72339514,23.5749335 8.72339514,22.7491591 8.72339514,22.7491591 C8.72339514,22.7491591 8.72339514,21.9234363 7.87655744,21.926066 L3.2598005,21.926066 L10.0715241,15.0879682 C10.6703974,14.4891206 10.0873538,13.906077 10.0873538,13.906077 C10.0873538,13.906077 9.50168042,13.3230591 8.90546254,13.9219067 L8.90546254,13.9219067 Z" id="形状"></path>
            </g>
        </g>
    </g>
</svg>