<?xml version="1.0" encoding="UTF-8"?>
<svg width="20px" height="20px" viewBox="0 0 20 20" version="1.1" xmlns="http://www.w3.org/2000/svg" xmlns:xlink="http://www.w3.org/1999/xlink">
    <!-- Generator: Sketch 54.1 (76490) - https://sketchapp.com -->
    <title>起草节点</title>
    <desc>Created with Sketch.</desc>
    <g id="起草节点" stroke="none" stroke-width="1" fill="none" fill-rule="evenodd">
        <g id="编组-55">
            <rect id="矩形复制-32" x="0" y="0" width="20" height="20"></rect>
            <g id="编组-68" transform="translate(3.000000, 2.591289)">
                <polygon id="矩形复制-71" fill="#4285F4" points="0 0 12.1333333 0 12.1333333 11.4107644 8.43542234 14.9333333 0 14.9333333"></polygon>
                <path d="M4.4991644,9.78907965 L13.0718657,2.33694413 L14.2965092,3.74573535 L5.72380792,11.1978709 L3.91072095,11.7285124 C3.804711,11.7595386 3.69362121,11.6987523 3.66259496,11.5927424 C3.64846684,11.5444696 3.653046,11.4926459 3.67541991,11.4475985 L4.4991644,9.78907965 Z" id="矩形复制-72" stroke="#4285F4" stroke-width="0.8" fill="#EFEFEF"></path>
                <path d="M2.82567131,3.65009456 L6.55900464,3.65009456" id="路径-46复制-2" stroke="#FFFFFF" stroke-width="1.2" stroke-linecap="square"></path>
                <path d="M2.82567131,6.39763403 L5.16315567,6.39763403" id="路径-46复制-3" stroke="#FFFFFF" stroke-width="1.2" stroke-linecap="square"></path>
                <path d="M8.31135903,14.0545938 L11.3416984,11.1922059 C11.4219968,11.116358 11.4256045,10.9897764 11.3497566,10.909478 C11.3119752,10.8694797 11.2593844,10.8468129 11.2043635,10.8468129 L7.97402416,10.8468129 L7.97402416,13.9092008 C7.97402416,14.0196577 8.06356721,14.1092008 8.17402416,14.1092008 C8.22509547,14.1092008 8.27423196,14.0896632 8.31135903,14.0545938 Z" id="路径-46" fill="#FFFFFF"></path>
            </g>
        </g>
    </g>
</svg>