<?xml version="1.0" encoding="UTF-8"?>
<svg width="32px" height="32px" viewBox="0 0 32 32" version="1.1" xmlns="http://www.w3.org/2000/svg" xmlns:xlink="http://www.w3.org/1999/xlink">
    <!-- Generator: Sketch 54.1 (76490) - https://sketchapp.com -->
    <title>开始事件正常状态</title>
    <desc>Created with Sketch.</desc>
    <g id="开始事件正常状态" stroke="none" stroke-width="1" fill="none" fill-rule="evenodd">
        <g id="编组-32复制-2" transform="translate(0.488048, 0.488048)">
            <g id="开始事件">
                <g id="编组-12复制-4">
                    <rect id="矩形" x="0" y="0" width="31.0313478" height="31.0313478"></rect>
                    <circle id="椭圆形复制" stroke="#50E3C2" fill="#E7FEFA" cx="15.5156739" cy="15.5156739" r="15.5156739"></circle>
                </g>
            </g>
            <path d="M16.8902089,12.1690353 L21.0746087,17.6485872 C21.4097986,18.0875248 21.3256945,18.7150791 20.8867569,19.0502689 C20.7124343,19.1833885 20.49918,19.2555022 20.2798419,19.2555022 L11.9110424,19.2555022 C11.3587576,19.2555022 10.9110424,18.8077869 10.9110424,18.2555022 C10.9110424,18.0361641 10.9831561,17.8229098 11.1162756,17.6485872 L15.3006754,12.1690353 C15.6358652,11.7300977 16.2634195,11.6459936 16.7023571,11.9811835 C16.7730503,12.0351675 16.8362249,12.0983422 16.8902089,12.1690353 Z" id="三角形" fill="#50E3C2" transform="translate(16.095468, 15.515700) rotate(-270.000000) translate(-16.095468, -15.515700) "></path>
        </g>
    </g>
</svg>