<?xml version="1.0" encoding="UTF-8"?>
<svg width="32px" height="32px" viewBox="0 0 32 32" version="1.1" xmlns="http://www.w3.org/2000/svg" xmlns:xlink="http://www.w3.org/1999/xlink">
    <!-- Generator: Sketch 54.1 (76490) - https://sketchapp.com -->
    <title>结束事件正常状态</title>
    <desc>Created with Sketch.</desc>
    <g id="结束事件正常状态" stroke="none" stroke-width="1" fill="none" fill-rule="evenodd">
        <g id="编组-35复制-9" transform="translate(0.500000, 0.505966)" stroke="#F25643">
            <g id="结束事件" fill="#FFF0EE">
                <circle id="椭圆形复制-2" cx="15.4980338" cy="15.4980338" r="15.4980338"></circle>
            </g>
            <g id="结束" transform="translate(9.380389, 8.972546)" fill="#F25643" fill-rule="nonzero" stroke-width="0.3">
                <g id="编组" transform="translate(0.247692, 0.199562)">
                    <path d="M5.46211744,11.6215265 C2.4491334,11.6184274 0.00906479064,9.17349066 0.0121509516,6.16051953 L0.0121507685,6.16068494 C0.0137766975,4.6715671 0.623849814,3.24778807 1.70091352,2.21947667 L1.70091347,2.21947671 C1.89465207,2.02962229 2.20561571,2.03277043 2.39547142,2.22650896 C2.58532584,2.42024755 2.5821777,2.73121119 2.38843917,2.92106691 C2.38504073,2.92439722 2.38159408,2.92767797 2.37810029,2.93090813 L2.37810037,2.93090805 C1.48599972,3.77095459 0.983039423,4.94389847 0.989482914,6.1692464 C0.986835789,8.64047361 2.98812721,10.6457422 5.45912199,10.6494998 C7.93011678,10.6532574 9.93563069,8.65107503 9.93827781,6.17986073 L9.93827786,6.17982165 C9.93984509,4.96667375 9.44872752,3.80488524 8.57747459,2.96071047 L8.57747462,2.9607105 C8.37708593,2.77806788 8.36269977,2.46756006 8.54534122,2.26717137 C8.72798384,2.06678268 9.03849166,2.05239652 9.23888035,2.23503798 C9.24091529,2.2368927 9.24293458,2.2387645 9.24493803,2.24065319 C9.24980616,2.24506937 9.25444186,2.24971798 9.25907756,2.25435368 C11.4194418,4.35462177 11.4684976,7.808604 9.36801,9.9689812 L9.36800981,9.96898139 C8.34222416,11.0240894 6.9336874,11.6200258 5.46211807,11.6215237 L5.46211744,11.6215265 Z" id="路径"></path>
                    <path d="M5.46211744,6.16426424 L5.46211742,6.16426424 C5.19098333,6.16426423 4.9711854,5.94446631 4.9711854,5.67333223 C4.9711854,5.67333223 4.9711854,5.67333223 4.9711854,5.67333223 L4.9711854,0.473034866 L4.97118541,0.473034732 C4.98111427,0.202082716 5.20881334,-0.00951945561 5.47976536,0.000409201837 C5.73678704,0.00982757097 5.94297228,0.216013052 5.95239089,0.473034732 L5.95239089,5.67311258 L5.95239091,5.67316303 C5.95248446,5.94412667 5.73302943,6.16392847 5.46206708,6.16426421 L5.46211744,6.16426424 Z" id="路径"></path>
                </g>
            </g>
        </g>
    </g>
</svg>