<?xml version="1.0" encoding="UTF-8"?>
<svg width="38px" height="34px" viewBox="0 0 38 34" version="1.1" xmlns="http://www.w3.org/2000/svg" xmlns:xlink="http://www.w3.org/1999/xlink">
    <!-- Generator: Sketch 54.1 (76490) - https://sketchapp.com -->
    <title>导航器</title>
    <desc>Created with Sketch.</desc>
    <g id="导航器" stroke="none" stroke-width="1" fill="none" fill-rule="evenodd">
        <g id="编组-128">
            <g id="编组-32" transform="translate(19.000000, 17.000000) rotate(-270.000000) translate(-19.000000, -17.000000) translate(2.000000, -2.000000)" fill="#FFFFFF" stroke="#E0E0E0">
                <rect id="矩形复制-9" transform="translate(17.000000, 19.000000) rotate(-180.000000) translate(-17.000000, -19.000000) " x="0.5" y="0.5" width="33" height="37" rx="2"></rect>
            </g>
            <g id="导航" transform="translate(19.074574, 16.970563) rotate(-45.000000) translate(-19.074574, -16.970563) translate(7.074574, 4.970563)" fill="#666666" fill-rule="nonzero">
                <path d="M12.000014,24.0000279 C5.37300625,24.0000279 0,18.6270217 0,12.000014 C0,5.37300625 5.37300625,0 12.000014,0 C18.6270217,0 24.0000279,5.37300625 24.0000279,12.000014 C24.0000279,18.6270217 18.6270217,24.0000279 12.000014,24.0000279 Z M12.000014,1.99999451 C6.47700754,1.99999451 1.99999451,6.47700754 1.99999451,12.000014 C1.99999451,17.5230204 6.47700754,22.0000334 12.000014,22.0000334 C17.5230204,22.0000334 22.0000334,17.5230204 22.0000334,12.000014 C22.0000334,6.47700754 17.5230204,1.99999451 12.000014,1.99999451 Z M11.1789974,12.8340149 L3.99300465,11.6910136 L18.012021,5.99299916 L12.3180143,19.9990311 L11.1790208,12.8340149 L11.1789974,12.8340149 Z" id="形状"></path>
            </g>
        </g>
    </g>
</svg>