<?xml version="1.0" encoding="UTF-8"?>
<svg width="24px" height="16px" viewBox="0 0 24 16" version="1.1" xmlns="http://www.w3.org/2000/svg" xmlns:xlink="http://www.w3.org/1999/xlink">
    <!-- Generator: Sketch 54.1 (76490) - https://sketchapp.com -->
    <title>编组 19复制</title>
    <desc>Created with Sketch.</desc>
    <defs>
        <rect id="path-1" x="0" y="0" width="24" height="15.2727273" rx="2"></rect>
    </defs>
    <g id="页面1" stroke="none" stroke-width="1" fill="none" fill-rule="evenodd">
        <g id="编组-19复制">
            <g id="编组-27复制-4">
                <g id="编组-29复制-2">
                    <g id="矩形">
                        <mask id="mask-2" fill="white">
                            <use xlink:href="#path-1"></use>
                        </mask>
                        <rect stroke="#DDDDDD" x="0.5" y="0.5" width="23" height="14.2727273" rx="2"></rect>
                        <rect fill="#DDDDDD" mask="url(#mask-2)" x="-1" y="0" width="4" height="17"></rect>
                    </g>
                </g>
            </g>
            <g id="编组-10复制-6" transform="translate(8.090683, 2.799805)">
                <rect id="矩形复制" fill="#DDDDDD" opacity="0.1" x="0" y="0" width="10" height="10" rx="4"></rect>
                <g id="编组-8复制-3" transform="translate(1.650633, 1.428571)">
                    <rect id="矩形复制-70" x="0" y="0" width="7.14285714" height="7.14285714"></rect>
                    <g id="编组-66复制-4" transform="translate(0.297619, 0.297619)">
                        <g id="编组-74">
                            <rect id="矩形复制-70" x="0" y="0" width="6.54761905" height="6.54761905"></rect>
                            <g id="编组-73" transform="translate(0.390452, 0.272817)">
                                <rect id="矩形复制-71" fill="#DDDDDD" x="-1.21147536e-12" y="4.08562073e-14" width="4.72883598" height="5.82010582"></rect>
                                <path d="M4.82214704,4.80839519 C4.7770939,4.75730185 4.75587505,4.73795516 4.74130772,4.72172408 C4.48900875,4.44049537 4.63122606,4.2541523 4.79208151,3.99747687 C4.82048677,3.96085361 4.8465996,3.9225666 4.86886393,3.88209485 C4.86886393,3.8818795 4.86938146,3.88126124 4.86938146,3.88126124 C4.93416916,3.74712044 4.966563,3.61900966 4.966563,3.49692888 C4.966563,3.05130882 4.60501251,2.689866 4.1592952,2.689866 C3.71336602,2.689866 3.35191625,3.0513123 3.35191625,3.49692888 C3.35191625,3.68482801 3.41652449,3.85702055 3.52389691,3.99414938 C3.69723566,4.26548939 3.96597412,4.46358983 3.51432776,4.81171227 L2.87362911,4.81171227 C2.79746495,4.81171227 2.7281746,4.92679211 2.7281746,5.00305699 L2.7281746,5.68130978 C2.7281746,5.75767886 2.79060156,5.82010582 2.86676225,5.82010582 C3.74055212,5.81943893 4.6149672,5.81988352 5.48700649,5.81988352 C5.56024954,5.81580231 5.6178624,5.75547674 5.6178624,5.68130978 L5.6178624,5.00306047 C5.6178624,4.90432632 5.54902012,4.80839172 5.44661114,4.80839172 L4.82214704,4.80839519 Z" id="路径" stroke="#DDDDDD" stroke-width="0.5" fill="#FFFFFF" fill-rule="nonzero"></path>
                                <path d="M0.909391534,1.54554593 L3.08881526,1.54554593" id="路径-46复制-2" stroke="#FFFFFF" stroke-width="0.5"></path>
                                <path d="M0.909391534,2.40967773 L3.08881526,2.40967773" id="路径-46复制-4" stroke="#FFFFFF" stroke-width="0.5"></path>
                                <path d="M0.909391534,3.27380952 L1.82040089,3.27380952" id="路径-46复制-3" stroke="#FFFFFF" stroke-width="0.5"></path>
                            </g>
                        </g>
                    </g>
                </g>
            </g>
        </g>
    </g>
</svg>