<?xml version="1.0" encoding="UTF-8"?>
<svg width="32px" height="32px" viewBox="0 0 32 32" version="1.1" xmlns="http://www.w3.org/2000/svg" xmlns:xlink="http://www.w3.org/1999/xlink">
    <!-- Generator: Sketch 54.1 (76490) - https://sketchapp.com -->
    <title>结束事件进行中</title>
    <desc>Created with Sketch.</desc>
    <g id="结束事件进行中" stroke="none" stroke-width="1" fill="none" fill-rule="evenodd">
        <g id="编组-35复制-11" transform="translate(0.500000, 0.507733)">
            <g id="结束事件" fill="#FFF0EE" stroke="#4285F4">
                <circle id="椭圆形复制-2" cx="15.4962952" cy="15.4962952" r="15.4962952"></circle>
            </g>
            <g id="结束" transform="translate(9.379337, 8.971539)" fill="#F25643" fill-rule="nonzero" stroke="#F25643" stroke-width="0.3">
                <g id="编组" transform="translate(0.247664, 0.199540)">
                    <path d="M5.4615047,11.6202228 C2.44885866,11.617124 0.00906377376,9.17246158 0.0121495885,6.15982844 L0.0121494054,6.15999383 C0.013775152,4.67104305 0.623779831,3.24742373 1.70072271,2.21922769 L1.70072267,2.21922773 C1.89443953,2.02939461 2.20536828,2.0325424 2.3952027,2.22625919 C2.58503582,2.41997605 2.58188803,2.73090481 2.38817124,2.92073922 C2.38477317,2.92406917 2.38132691,2.92734954 2.37783351,2.93057934 L2.3778336,2.93057926 C1.48583302,3.77053157 0.982929146,4.94334387 0.989371914,6.16855434 C0.986725086,8.63950433 2.987792,10.6445479 5.45850959,10.6483051 C7.92922718,10.6520624 9.93451611,8.65010455 9.93716294,6.17916747 L9.93716299,6.1791284 C9.93873004,4.96611659 9.44766756,3.80445841 8.57651237,2.96037834 L8.5765124,2.96037836 C8.37614619,2.77775623 8.36176164,2.46728325 8.54438261,2.26691704 C8.72700474,2.06655083 9.03747773,2.05216628 9.23784394,2.23478725 C9.23987865,2.23664176 9.24189772,2.23851335 9.24390094,2.24040183 C9.24876852,2.24481752 9.2534037,2.24946561 9.25803888,2.25410079 C11.4181608,4.35413327 11.4672111,7.80772803 9.3669591,9.96786289 L9.36695891,9.96786308 C8.34128833,11.0228528 6.93290958,11.6187223 5.46150533,11.62022 L5.4615047,11.6202228 Z" id="路径"></path>
                    <path d="M5.4615047,6.16357274 L5.46150468,6.16357274 C5.19040101,6.16357273 4.97062774,5.94379947 4.97062774,5.67269579 C4.97062774,5.67269579 4.97062774,5.67269579 4.97062774,5.67269579 L4.97062774,0.472981801 L4.97062774,0.472981667 C4.98055549,0.202060046 5.20822902,-0.00951838772 5.47915064,0.000409155933 C5.73614349,0.00982646851 5.9423056,0.21598882 5.95172315,0.472981667 L5.95172315,5.67247617 L5.95172317,5.67252662 C5.95181671,5.94345986 5.7323863,6.16323701 5.46145435,6.1635727 L5.4615047,6.16357274 Z" id="路径"></path>
                </g>
            </g>
        </g>
    </g>
</svg>