<?xml version="1.0" encoding="UTF-8"?>
<svg width="36px" height="36px" viewBox="0 0 36 36" version="1.1" xmlns="http://www.w3.org/2000/svg" xmlns:xlink="http://www.w3.org/1999/xlink">
    <!-- Generator: Sketch 54.1 (76490) - https://sketchapp.com -->
    <title>开始事件</title>
    <desc>Created with Sketch.</desc>
    <g id="开始事件" stroke="none" stroke-width="1" fill="none" fill-rule="evenodd">
        <g id="编组-26">
            <rect id="矩形" x="0" y="0" width="36" height="36"></rect>
            <g id="开始事件" transform="translate(2.045324, 1.838314)">
                <g id="编组-32">
                    <g id="开始事件">
                        <g id="编组-12复制-4">
                            <rect id="矩形" x="0" y="0" width="32" height="32"></rect>
                            <circle id="椭圆形复制" stroke="#50E3C2" fill="#E7FEFA" cx="16" cy="16" r="16"></circle>
                        </g>
                    </g>
                    <path d="M17.4027414,12.5265146 L21.7808716,18.2597602 C22.1160615,18.6986978 22.0319574,19.3262521 21.5930198,19.6614419 C21.4186972,19.7945615 21.2054429,19.8666751 20.9861048,19.8666751 L12.2298444,19.8666751 C11.6775597,19.8666751 11.2298444,19.4189599 11.2298444,18.8666751 C11.2298444,18.6473371 11.3019581,18.4340828 11.4350776,18.2597602 L15.8132078,12.5265146 C16.1483977,12.087577 16.775952,12.0034729 17.2148896,12.3386627 C17.2855827,12.3926468 17.3487573,12.4558214 17.4027414,12.5265146 Z" id="三角形" fill="#50E3C2" transform="translate(16.608001, 16.000026) rotate(-270.000000) translate(-16.608001, -16.000026) "></path>
                </g>
            </g>
        </g>
    </g>
</svg>