<?xml version="1.0" encoding="UTF-8"?>
<svg width="32px" height="32px" viewBox="0 0 32 32" version="1.1" xmlns="http://www.w3.org/2000/svg" xmlns:xlink="http://www.w3.org/1999/xlink">
    <!-- Generator: Sketch 54.1 (76490) - https://sketchapp.com -->
    <title>结束事件异常状态</title>
    <desc>Created with Sketch.</desc>
    <g id="结束事件异常状态" stroke="none" stroke-width="1" fill="none" fill-rule="evenodd">
        <g id="编组-35复制-10" transform="translate(0.500000, 0.508006)" stroke="#F03C3C">
            <g id="结束事件" fill="#FFF0EE">
                <circle id="椭圆形复制-2" cx="15.4960261" cy="15.4960261" r="15.4960261"></circle>
            </g>
            <g id="结束" transform="translate(9.379174, 8.971384)" fill="#F03C3C" fill-rule="nonzero" stroke-width="0.3">
                <g id="编组" transform="translate(0.247660, 0.199536)">
                    <path d="M5.46140987,11.620021 C2.44881614,11.6169223 0.00906361638,9.17230231 0.0121493775,6.15972149 L0.0121491944,6.15988687 C0.0137749128,4.67096194 0.623769,3.24736734 1.70069318,2.21918915 L1.70069314,2.2191892 C1.89440663,2.02935937 2.20532999,2.0325071 2.39516111,2.22622054 C2.58499094,2.41993403 2.5818432,2.73085739 2.38812977,2.92068851 C2.38473176,2.92401839 2.38128556,2.92729871 2.37779222,2.93052846 L2.37779231,2.93052838 C1.48580722,3.7704661 0.982912079,4.94325804 0.989354735,6.16844723 C0.986707953,8.63935432 2.98774012,10.6443631 5.45841481,10.6481203 C7.9290895,10.6518774 9.93434361,8.64995436 9.9369904,6.17906018 L9.93699045,6.17902111 C9.93855747,4.96603036 9.44750352,3.80439235 8.57636345,2.96032694 L8.57636348,2.96032696 C8.37600075,2.777708 8.36161645,2.46724041 8.54423425,2.26687768 C8.72685321,2.06651495 9.0373208,2.05213065 9.23768353,2.23474845 C9.23971821,2.23660293 9.24173724,2.23847449 9.24374043,2.24036293 C9.24860793,2.24477854 9.25324303,2.24942655 9.25787812,2.25406165 C11.4179626,4.35405766 11.467012,7.80759246 9.36679645,9.96768981 L9.36679627,9.96769 C8.3411435,11.0226614 6.9327892,11.6185206 5.4614105,11.6200183 L5.46140987,11.620021 Z" id="路径"></path>
                    <path d="M5.46140987,6.16346572 L5.46140985,6.16346572 C5.19031089,6.16346571 4.97054143,5.94369626 4.97054143,5.6725973 C4.97054143,5.6725973 4.97054143,5.6725973 4.97054143,5.6725973 L4.97054143,0.472973588 L4.97054143,0.472973454 C4.98046901,0.202056538 5.20813858,-0.00951822245 5.4790555,0.000409148828 C5.73604389,0.00982629789 5.94220242,0.21598507 5.95161981,0.472973454 L5.95161981,5.67237767 L5.95161983,5.67242812 C5.95171337,5.94335666 5.73228677,6.16312999 5.46135952,6.16346568 L5.46140987,6.16346572 Z" id="路径"></path>
                </g>
            </g>
        </g>
    </g>
</svg>