<?xml version="1.0" encoding="UTF-8"?>
<svg width="159px" height="39px" viewBox="0 0 159 39" version="1.1" xmlns="http://www.w3.org/2000/svg" xmlns:xlink="http://www.w3.org/1999/xlink">
    <!-- Generator: Sketch 54.1 (76490) - https://sketchapp.com -->
    <title>编组 130</title>
    <desc>Created with Sketch.</desc>
    <defs>
        <rect id="path-1" x="0.560885984" y="0" width="158" height="38" rx="4"></rect>
    </defs>
    <g id="页面1" stroke="none" stroke-width="1" fill="none" fill-rule="evenodd">
        <g id="编组-130" transform="translate(-0.203022, 0.814939)">
            <rect id="矩形" fill="#FFFFFF" x="0.560885984" y="0" width="158" height="38" rx="4"></rect>
            <g id="编组-127">
                <mask id="mask-2" fill="white">
                    <use xlink:href="#path-1"></use>
                </mask>
                <rect stroke="#DDDDDD" x="1.06088598" y="0.5" width="157" height="37" rx="4"></rect>
                <rect id="矩形" fill="#4285F4" mask="url(#mask-2)" x="-5" y="-4" width="9.12177197" height="47.5"></rect>
                <rect id="矩形" fill="#4285F4" opacity="0.1" mask="url(#mask-2)" x="10.7030216" y="5" width="28" height="28" rx="4"></rect>
                <g id="编组-25复制" mask="url(#mask-2)">
                    <g transform="translate(16.203022, 10.500000)">
                        <rect id="矩形复制-70" x="0" y="0" width="10.5882353" height="10.5882353"></rect>
                        <g id="编组-26" stroke-width="1" fill-rule="evenodd" transform="translate(1.323529, 1.081435)">
                            <g id="编组-19" fill="#4285F4">
                                <rect id="矩形" x="0" y="0" width="12.605042" height="14.4968099"></rect>
                            </g>
                            <g id="编组-9" transform="translate(2.296547, 3.184287)" stroke="#FFFFFF" stroke-width="1.2">
                                <path d="M0.325838419,2.69411075 L6.65936173,2.69411075" id="路径-46复制-2"></path>
                                <path d="M0.325838419,0.472689076 L6.65936173,0.472689076" id="路径-46复制-5"></path>
                                <path d="M0.325838419,4.91553243 L4.29133262,4.91553243" id="路径-46复制-3"></path>
                            </g>
                            <path d="M6.14495798,11.4081597 C7.0062883,12.8406396 8.56313135,13.7411213 10.2420346,13.7641515 C11.9209378,13.7434243 13.4777808,12.8429426 14.3391111,11.4104627 C13.4777808,9.97798289 11.9209378,9.07750119 10.2420346,9.05447097 C8.56313135,9.07519817 7.00398528,9.97337685 6.14495798,11.4081597 Z" id="路径" stroke="#4285F4" stroke-width="0.8" fill="#FFFFFF" fill-rule="nonzero"></path>
                            <path d="M10.2420346,10.5111325 C9.74688478,10.5111325 9.34385589,10.9141614 9.34385589,11.4093112 C9.34385589,11.904461 9.74688478,12.3074899 10.2420346,12.3074899 C10.7371844,12.3074899 11.1402132,11.904461 11.1402132,11.4093112 C11.1402132,10.9141614 10.7371844,10.5111325 10.2420346,10.5111325 Z" id="路径" stroke="#4285F4" stroke-width="0.67" fill-rule="nonzero"></path>
                        </g>
                    </g>
                </g>
            </g>
        </g>
    </g>
</svg>