<?xml version="1.0" encoding="UTF-8"?>
<svg width="159px" height="39px" viewBox="0 0 159 39" version="1.1" xmlns="http://www.w3.org/2000/svg" xmlns:xlink="http://www.w3.org/1999/xlink">
    <!-- Generator: Sketch 54.1 (76490) - https://sketchapp.com -->
    <title>编组 132</title>
    <desc>Created with Sketch.</desc>
    <defs>
        <rect id="path-1" x="0.357864376" y="0" width="158" height="38" rx="4"></rect>
    </defs>
    <g id="页面1" stroke="none" stroke-width="1" fill="none" fill-rule="evenodd">
        <g id="编组-132" transform="translate(0.000000, 0.604980)">
            <rect id="矩形复制-187" fill="#FFFFFF" x="0.357864376" y="0" width="158" height="38" rx="4"></rect>
            <g id="编组-14复制-15">
                <g id="编组-14复制-7">
                    <g id="矩形">
                        <mask id="mask-2" fill="white">
                            <use xlink:href="#path-1"></use>
                        </mask>
                        <rect stroke="#DDDDDD" x="0.857864376" y="0.5" width="157" height="37" rx="4"></rect>
                        <rect fill="#4285F4" mask="url(#mask-2)" x="-5.20302161" y="-4" width="9.12177197" height="47.5"></rect>
                        <rect fill="#4285F4" opacity="0.1" mask="url(#mask-2)" x="10.5" y="5" width="28" height="28" rx="4"></rect>
                    </g>
                    <g id="编组-8" transform="translate(15.121772, 9.000000)">
                        <rect id="矩形复制-70" x="0" y="0" width="20" height="20"></rect>
                        <g id="编组-66复制-4" transform="translate(0.833333, 0.833333)">
                            <g id="编组-74">
                                <rect id="矩形复制-70" x="0" y="0" width="18.3333333" height="18.3333333"></rect>
                                <g id="编组-73" transform="translate(1.093264, 0.763889)">
                                    <rect id="矩形复制-71" fill="#4285F4" x="-1.21147536e-12" y="4.08562073e-14" width="13.2407407" height="16.2962963"></rect>
                                    <path d="M13.5020117,13.4635065 C13.3758629,13.3204452 13.3164502,13.2662744 13.2756616,13.2208274 C12.5692245,12.433387 12.967433,11.9116264 13.4178282,11.1929352 C13.4973629,11.0903901 13.5704789,10.9831865 13.632819,10.8698656 C13.632819,10.8692626 13.6342681,10.8675315 13.6342681,10.8675315 C13.8156736,10.4919372 13.9063764,10.133227 13.9063764,9.79140085 C13.9063764,8.5436647 12.894035,7.5316248 11.6460266,7.5316248 C10.3974248,7.5316248 9.38536549,8.54367443 9.38536549,9.79140085 C9.38536549,10.3175184 9.56626856,10.7996576 9.86691135,11.1836183 C10.3522599,11.9433703 11.1047275,12.4980515 9.84011774,13.4727943 L8.0461615,13.4727943 C7.83290186,13.4727943 7.63888889,13.7950179 7.63888889,14.0085596 L7.63888889,15.9076674 C7.63888889,16.1215008 7.81368438,16.2962963 8.02693429,16.2962963 C10.4735459,16.294429 12.9219082,16.2956739 15.3636182,16.2956739 C15.5686987,16.2842465 15.7300147,16.1153349 15.7300147,15.9076674 L15.7300147,14.0085693 C15.7300147,13.7321137 15.5372563,13.4634968 15.2505112,13.4634968 L13.5020117,13.4635065 Z" id="路径" stroke="#4285F4" stroke-width="0.8" fill="#FFFFFF" fill-rule="nonzero"></path>
                                    <path d="M2.5462963,4.32752859 L8.64868274,4.32752859" id="路径-46复制-2" stroke="#FFFFFF"></path>
                                    <path d="M2.5462963,6.74709763 L8.64868274,6.74709763" id="路径-46复制-4" stroke="#FFFFFF"></path>
                                    <path d="M2.5462963,9.16666667 L5.09712248,9.16666667" id="路径-46复制-3" stroke="#FFFFFF"></path>
                                </g>
                            </g>
                        </g>
                    </g>
                </g>
            </g>
        </g>
    </g>
</svg>