<?xml version="1.0" encoding="UTF-8"?>
<svg width="32px" height="32px" viewBox="0 0 32 32" version="1.1" xmlns="http://www.w3.org/2000/svg" xmlns:xlink="http://www.w3.org/1999/xlink">
    <!-- Generator: Sketch 54.1 (76490) - https://sketchapp.com -->
    <title>开始事件异常状态</title>
    <desc>Created with Sketch.</desc>
    <g id="开始事件异常状态" stroke="none" stroke-width="1" fill="none" fill-rule="evenodd">
        <g id="编组-90" transform="translate(0.519442, 0.519442)">
            <rect id="矩形复制-102" x="0" y="0" width="30.9695488" height="30.9695488"></rect>
            <circle id="椭圆形复制-5" stroke="#F03C3C" fill="#E7FEFA" cx="15.4847744" cy="15.4847744" r="15.4847744"></circle>
            <path d="M16.8575099,12.1462285 L21.0295499,17.609595 C21.3647398,18.0485326 21.2806357,18.6760869 20.8416981,19.0112768 C20.6673755,19.1443963 20.4541212,19.21651 20.2347831,19.21651 L11.8907032,19.21651 C11.3384184,19.21651 10.8907032,18.7687947 10.8907032,18.21651 C10.8907032,17.9971719 10.9628168,17.7839176 11.0959364,17.609595 L15.2679764,12.1462285 C15.6031662,11.707291 16.2307205,11.6231868 16.6696581,11.9583767 C16.7403513,12.0123608 16.8035259,12.0755354 16.8575099,12.1462285 Z" id="三角形复制-7" fill="#50E3C2" transform="translate(16.062769, 15.484801) rotate(-270.000000) translate(-16.062769, -15.484801) "></path>
        </g>
    </g>
</svg>