<?xml version="1.0" encoding="UTF-8"?>
<svg width="159px" height="38px" viewBox="0 0 159 38" version="1.1" xmlns="http://www.w3.org/2000/svg" xmlns:xlink="http://www.w3.org/1999/xlink">
    <!-- Generator: Sketch 54.1 (76490) - https://sketchapp.com -->
    <title>传阅节点不经过</title>
    <desc>Created with Sketch.</desc>
    <defs>
        <rect id="path-1" x="0.357864376" y="0" width="158" height="38" rx="4"></rect>
    </defs>
    <g id="传阅节点不经过" stroke="none" stroke-width="1" fill="none" fill-rule="evenodd">
        <g id="编组-106">
            <g id="编组-90">
                <rect id="矩形复制-101" fill="#FFFFFF" x="2.2" y="0" width="155.524405" height="37.5" rx="4"></rect>
                <g id="矩形">
                    <mask id="mask-2" fill="white">
                        <use xlink:href="#path-1"></use>
                    </mask>
                    <rect stroke="#DDDDDD" x="0.857864376" y="0.5" width="157" height="37" rx="4"></rect>
                    <rect fill="#DDDDDD" mask="url(#mask-2)" x="-5.20302161" y="-4" width="9.12177197" height="47.5"></rect>
                    <rect fill="#DDDDDD" opacity="0.1" mask="url(#mask-2)" x="10.5" y="5" width="28" height="28" rx="4"></rect>
                    <g id="编组-25" mask="url(#mask-2)">
                        <g transform="translate(15.627749, 11.175092)">
                            <rect id="矩形复制-70" x="0" y="1" width="10.5882353" height="10.5882353"></rect>
                            <g id="编组-26" stroke-width="1" fill-rule="evenodd" transform="translate(1.323529, 0.081435)">
                                <g id="编组-19" transform="translate(0.000000, 0.314171)" fill="#DDDDDD">
                                    <rect id="矩形" x="0" y="0" width="13.2472991" height="16.1260856"></rect>
                                </g>
                                <g id="编组-9" transform="translate(2.296547, 3.184287)" stroke="#FFFFFF" stroke-width="1.2">
                                    <path d="M0.325838419,3.59957592 L6.65936173,3.59957592" id="路径-46复制-2"></path>
                                    <path d="M0.325838419,1.24304635 L6.65936173,1.24304635" id="路径-46复制-5"></path>
                                    <path d="M0.325838419,5.9561055 L4.29133262,5.9561055" id="路径-46复制-3"></path>
                                </g>
                                <path d="M7,13.4081597 C7.86133032,14.8406396 9.41817336,15.7411213 11.0970766,15.7641515 C12.7759798,15.7434243 14.3328228,14.8429426 15.1941532,13.4104627 C14.3328228,11.9779829 12.7759798,11.0775012 11.0970766,11.054471 C9.41817336,11.0751982 7.8590273,11.9733768 7,13.4081597 Z" id="路径" stroke="#DDDDDD" stroke-width="0.8" fill="#FFFFFF" fill-rule="nonzero"></path>
                                <path d="M11.0970766,12.5111325 C10.6019268,12.5111325 10.1988979,12.9141614 10.1988979,13.4093112 C10.1988979,13.904461 10.6019268,14.3074899 11.0970766,14.3074899 C11.5922264,14.3074899 11.9952553,13.904461 11.9952553,13.4093112 C11.9952553,12.9141614 11.5922264,12.5111325 11.0970766,12.5111325 Z" id="路径" stroke="#DDDDDD" stroke-width="0.67" fill-rule="nonzero"></path>
                            </g>
                        </g>
                    </g>
                </g>
            </g>
        </g>
    </g>
</svg>