<?xml version="1.0" encoding="UTF-8"?>
<svg width="32px" height="32px" viewBox="0 0 32 32" version="1.1" xmlns="http://www.w3.org/2000/svg" xmlns:xlink="http://www.w3.org/1999/xlink">
    <!-- Generator: Sketch 54.1 (76490) - https://sketchapp.com -->
    <title>结束事件未开始</title>
    <desc>Created with Sketch.</desc>
    <g id="结束事件未开始" stroke="none" stroke-width="1" fill="none" fill-rule="evenodd">
        <g id="编组-35复制-3" fill-rule="nonzero" stroke="#ADADAD">
            <g id="结束事件" fill="#F6F6F6">
                <circle id="椭圆形复制-2" cx="16" cy="16" r="15.5"></circle>
            </g>
            <g id="结束" transform="translate(9.684211, 9.263158)" fill="#ADADAD" stroke-width="0.3">
                <g id="编组" transform="translate(0.255715, 0.206026)">
                    <path d="M5.63903011,11.9979364 C2.52845845,11.9947369 0.00935839039,9.47061109 0.0125445091,6.36005276 L0.01254432,6.36022353 C0.0142229113,4.82287461 0.644055702,3.35298076 1.75600445,2.29136336 L1.75600441,2.2913634 C1.956018,2.09535978 2.27705345,2.09860989 2.47305841,2.29862342 C2.66906203,2.49863702 2.66581192,2.81967247 2.46579839,3.01567742 C2.46228987,3.0191156 2.45873159,3.02250261 2.45512464,3.02583739 L2.45512473,3.02583731 C1.5341298,3.89309214 1.01487911,5.10402653 1.0215313,6.36906229 C1.01879844,8.92033014 3.08490974,10.9905474 5.63593764,10.9944267 C8.18696554,10.9983061 10.2574361,8.93127493 10.260169,6.3800204 L10.260169,6.37998006 C10.261787,5.12753948 9.7547626,3.92812177 8.85529064,3.056605 L8.85529067,3.05660503 C8.64841159,2.86804679 8.63355947,2.54748193 8.82211651,2.34060284 C9.01067474,2.13372376 9.33123961,2.11887165 9.53811869,2.30742868 C9.54021954,2.30934347 9.54230424,2.3112759 9.54437258,2.31322577 C9.54939838,2.31778498 9.55418422,2.32258416 9.55897007,2.32737 C11.7893065,4.49566373 11.8399511,8.06151708 9.67143072,10.2918668 L9.67143053,10.291867 C8.61242068,11.381149 7.15826279,11.9963872 5.63903076,11.9979336 L5.63903011,11.9979364 Z" id="路径"></path>
                    <path d="M5.63903011,6.36391876 L5.63903009,6.36391876 C5.35911423,6.36391875 5.13219726,6.13700179 5.13219726,5.85708594 C5.13219726,5.85708594 5.13219726,5.85708594 5.13219726,5.85708594 L5.13219726,0.488356005 L5.13219726,0.488355866 C5.14244771,0.208627978 5.37752174,-0.00982778151 5.65724962,0.000422455486 C5.92259598,0.0101458764 6.13545937,0.223009505 6.14518303,0.488355866 L6.14518303,5.85685917 L6.14518305,5.85691126 C6.14527964,6.13665115 5.91871667,6.36357212 5.63897812,6.36391872 L5.63903011,6.36391876 Z" id="路径"></path>
                </g>
            </g>
        </g>
    </g>
</svg>