<?xml version="1.0" encoding="UTF-8"?>
<svg width="38px" height="38px" viewBox="0 0 38 38" version="1.1" xmlns="http://www.w3.org/2000/svg" xmlns:xlink="http://www.w3.org/1999/xlink">
    <!-- Generator: Sketch 54.1 (76490) - https://sketchapp.com -->
    <title>人工决策进行中</title>
    <desc>Created with Sketch.</desc>
    <g id="人工决策进行中" stroke="none" stroke-width="1" fill="none" fill-rule="evenodd">
        <g id="编组-37复制-8">
            <g id="编组-28">
                <path d="M6.3,6.3 L6.3,31.7 L31.7,31.7 L31.7,6.3 L6.3,6.3 Z" id="矩形复制-65" stroke="#4285F4" stroke-width="1.2" fill="#FFD58D" transform="translate(19.000000, 19.000000) rotate(-225.000000) translate(-19.000000, -19.000000) "></path>
                <rect id="矩形" x="8.63774776" y="8.39759162" width="18.4630958" height="18.4630958"></rect>
                <g id="编组-63" transform="translate(11.611111, 10.235687)" fill="#FFFFFF">
                    <path d="M4.10012911,7.83839157 L10.2137461,7.83839157 C12.2431321,7.83839157 13.8882746,9.48353402 13.8882746,11.5129201 L13.8882746,14.6874486 C13.8882746,14.963591 13.664417,15.1874486 13.3882746,15.1874486 L0.925600591,15.1874486 C0.649458216,15.1874486 0.425600591,14.963591 0.425600591,14.6874486 L0.425600591,11.5129201 C0.425600591,9.48353402 2.07074305,7.83839157 4.10012911,7.83839157 Z" id="矩形"></path>
                    <circle id="椭圆形" cx="7.1569376" cy="3.22660227" r="3.167688"></circle>
                </g>
            </g>
        </g>
    </g>
</svg>