<?xml version="1.0" encoding="UTF-8"?>
<svg width="20px" height="20px" viewBox="0 0 20 20" version="1.1" 
    xmlns="http://www.w3.org/2000/svg" 
    xmlns:xlink="http://www.w3.org/1999/xlink">
    <!-- Generator: Sketch 54.1 (76490) - https://sketchapp.com -->
    <title>审批节点</title>
    <desc>Created with Sketch.</desc>
    <g id="审批节点" stroke="none" stroke-width="1" fill="none" fill-rule="evenodd">
        <g id="编组-40">
            <rect id="矩形复制-33" x="0" y="0" width="20" height="20"></rect>
            <g id="编组-66复制-4" transform="translate(1.952822, 1.877967)">
                <g id="编组-74">
                    <rect id="矩形复制-70" x="0" y="0" width="16" height="16"></rect>
                    <g id="编组-73" transform="translate(0.954121, 0.666667)">
                        <rect id="矩形复制-71" fill="#4285F4" x="-1.21147536e-12" y="4.08562073e-14" width="11.5555556" height="14.2222222"></rect>
                        <path d="M11.7835739,11.7499693 C11.6734804,11.6251158 11.6216292,11.5778395 11.586032,11.5381767 C10.969505,10.850956 11.3170324,10.3956013 11.7101046,9.76837985 C11.7795168,9.67888592 11.843327,9.58532639 11.8977329,9.48642813 C12.0568936,9.15727879 12.136474,8.8435436 12.136474,8.54522256 C12.136474,7.45628919 11.252976,6.57305437 10.163805,6.57305437 C9.07411623,6.57305437 8.19086443,7.45629768 8.19086443,8.54522256 C8.19086443,9.00437973 8.34874347,9.42515568 8.61112263,9.76024867 C9.03469951,10.423305 9.69139858,10.9073904 8.58773912,11.7580751 L7.02210458,11.7580751 C6.83598708,11.7580751 6.66666667,12.0392884 6.66666667,12.225652 L6.66666667,13.8830552 C6.66666667,14.0696734 6.81921546,14.2222222 7.00532447,14.2222222 C9.14054917,14.2205926 11.2773017,14.221679 13.4082486,14.221679 C13.587228,14.211706 13.7280128,14.0642923 13.7280128,13.8830552 L13.7280128,12.2256605 C13.7280128,11.9843901 13.5597873,11.7499609 13.3095371,11.7499609 L11.7835739,11.7499693 Z" id="路径" stroke="#4285F4" fill="#FFFFFF" fill-rule="nonzero"></path>
                        <path d="M2.62623831,3.77675223 L7.5479413,3.77675223" id="路径-46复制-2" stroke="#FFFFFF" stroke-width="1.2" stroke-linecap="square"></path>
                        <path d="M2.62623831,5.88837611 L7.5479413,5.88837611" id="路径-46复制-4" stroke="#FFFFFF" stroke-width="1.2" stroke-linecap="square"></path>
                        <path d="M2.62623831,8 L4.68353327,8" id="路径-46复制-3" stroke="#FFFFFF" stroke-width="1.2" stroke-linecap="square"></path>
                    </g>
                </g>
            </g>
        </g>
    </g>
</svg>