<?xml version="1.0" encoding="UTF-8"?>
<svg width="20px" height="20px" viewBox="0 0 20 20" version="1.1" xmlns="http://www.w3.org/2000/svg" xmlns:xlink="http://www.w3.org/1999/xlink">
    <!-- Generator: Sketch 54.1 (76490) - https://sketchapp.com -->
    <title>签字节点</title>
    <desc>Created with Sketch.</desc>
    <g id="签字节点" stroke="none" stroke-width="1" fill="none" fill-rule="evenodd">
        <g id="编组-117复制-5">
            <g id="编组-116">
                <g id="编组-115复制-5" transform="translate(10.000000, 10.000000) scale(-1, 1) translate(-10.000000, -10.000000) ">
                    <rect id="矩形复制-70" x="0.562316631" y="0.341282648" width="19.047619" height="19.047619"></rect>
                </g>
                <g id="编组-106" transform="translate(2.857143, 2.380952)">
                    <g id="编组-111" transform="translate(6.190476, 7.619048) scale(-1, 1) translate(-6.190476, -7.619048) ">
                        <g id="编组-68" transform="translate(6.190476, 7.619048) scale(1, -1) translate(-6.190476, -7.619048) ">
                            <polygon id="矩形复制-71" fill="#4285F4" points="0 0 12.3809524 0 12.3809524 11.6436371 8.60757382 15.2380952 0 15.2380952"></polygon>
                            <path d="M8.79159618,14.6507847 L11.9242593,11.6917443 C11.9644084,11.6538203 11.9662123,11.5905295 11.9282883,11.5503803 C11.9093976,11.5303812 11.8831023,11.5190478 11.8555918,11.5190478 L8.62292875,11.5190478 L8.62292875,14.5780882 C8.62292875,14.6333167 8.66770027,14.6780882 8.72292875,14.6780882 C8.74846441,14.6780882 8.77303265,14.6683194 8.79159618,14.6507847 Z" id="路径-46" stroke="#4285F4" stroke-width="0.6" fill="#FFFFFF"></path>
                        </g>
                        <g id="编组-68" transform="translate(6.190476, 7.619048) scale(1, -1) translate(-6.190476, -7.619048) ">
                            <polygon id="矩形复制-71" fill="#4285F4" points="0 0 12.3809524 0 12.3809524 11.6436371 8.60757382 15.2380952 0 15.2380952"></polygon>
                            <path d="M8.79159618,14.6507847 L11.9242593,11.6917443 C11.9644084,11.6538203 11.9662123,11.5905295 11.9282883,11.5503803 C11.9093976,11.5303812 11.8831023,11.5190478 11.8555918,11.5190478 L8.62292875,11.5190478 L8.62292875,14.5780882 C8.62292875,14.6333167 8.66770027,14.6780882 8.72292875,14.6780882 C8.74846441,14.6780882 8.77303265,14.6683194 8.79159618,14.6507847 Z" id="路径-46" stroke="#4285F4" stroke-width="0.6" fill="#FFFFFF"></path>
                        </g>
                    </g>
                    <polygon id="路径" stroke="#4285F4" stroke-width="0.8" fill="#FFFFFF" fill-rule="nonzero" points="3.53514699 9.18335749 3.53514699 10.8027137 5.15265026 10.8027137 14.1917749 3.1061561 12.86448 1.36504323"></polygon>
                    <path d="" id="路径-17" stroke="#979797"></path>
                    <path d="M6.92373136,10.1842523 L10.0727862,10.1842523" id="路径-25" stroke="#FFFFFF"></path>
                    <path d="M2.56025072,12.2906705 L10.0727862,12.2906705" id="路径-60" stroke="#FFFFFF"></path>
                </g>
            </g>
            <path d="M14.4807869,5.10615279 L15.5223061,6.35563447" id="路径-87" stroke="#4285F4" stroke-width="0.8"></path>
        </g>
    </g>
</svg>