<?xml version="1.0" encoding="UTF-8"?>
<svg width="28px" height="28px" viewBox="0 0 28 28" version="1.1" xmlns="http://www.w3.org/2000/svg" xmlns:xlink="http://www.w3.org/1999/xlink">
    <!-- Generator: Sketch 54.1 (76490) - https://sketchapp.com -->
    <title>提示/删除 </title>
    <desc>Created with Sketch.</desc>
    <g id="页面1" stroke="none" stroke-width="1" fill="none" fill-rule="evenodd">
        <g id="11流程实例全屏" transform="translate(-1315.000000, -91.000000)">
            <g id="提示/删除-" transform="translate(1315.000000, 91.000000)">
                <g id="分组-19">
                    <g id="分组">
                        <circle id="Base" fill="#F5F5F5" cx="14" cy="14" r="14"></circle>
                        <path d="M15.2444557,13.8316319 L18.8669408,17.4541171 C19.2628726,17.8500489 19.2589022,18.4792434 18.8683779,18.8697677 C18.475131,19.2630147 17.8440452,19.2596486 17.4527273,18.8683306 L13.8302421,15.2458454 L10.2077569,18.8683306 C9.81643895,19.2596486 9.18535323,19.2630147 8.79210628,18.8697677 C8.40158199,18.4792434 8.39761154,17.8500489 8.79354335,17.4541171 L12.4160285,13.8316319 L8.79354335,10.2091467 C8.39761154,9.81321489 8.40158199,9.18402036 8.79210628,8.79349607 C9.18535323,8.40024911 9.81643895,8.40361517 10.2077569,8.79493314 L13.8302421,12.4174183 L17.4527273,8.79493314 C17.8440452,8.40361517 18.475131,8.40024911 18.8683779,8.79349607 C19.2589022,9.18402036 19.2628726,9.81321489 18.8669408,10.2091467 L15.2444557,13.8316319 Z" id="Combined-Shape" fill="#CCCCCC"></path>
                    </g>
                </g>
            </g>
        </g>
    </g>
</svg>